# xmcd CD database file
#
# Track frame offsets:
#	150
#	13530
#	32440
#	48050
#	64262
#	77395
#	94810
#	108965
#	125020
#	144262
#	160217
#	177960
#	189737
#	206037
#	222447
#	239855
#	253157
#	269057
#
# Disc length: 3832 seconds
#
# Revision: 2
# Processed by: cddbd v1.4b41PL1 Copyright (c) Steve Scherf et al.
# Submitted via: Feurio! 1.60 - http://www.feurio.com
#
DISCID=060ef612,0f0ef612
DTITLE=Nockalm Quintett - Nockalm Gold
DYEAR=1900
DGENRE=
TTITLE0=Lass mich Dein Kolumbus sein
TTITLE1=Schwarzer Sand von Santa Cruz
TTITLE2=Aus Tränen wird ein Schmetterling
TTITLE3=Spiel nie mit dem Feuer
TTITLE4=Nur a Tanz und dann a Busserl
TTITLE5=Ein Herz wie ein Engel
TTITLE6=Schau mich bitte nicht so traurig an
TTITLE7=Jenny Jenny
TTITLE8=Wann kommst du wieder
TTITLE9=Weine nicht um Ihn
TTITLE10=Drei Finger aufs Herz
TTITLE11=Schuld sind Deine himmelblauen Augen
TTITLE12=Du
TTITLE13=Der Engel aus Glas
TTITLE14=Gib mir als Souvenier ein Bild
TTITLE15=Und in der Nacht, da brauch i di zum Träumen
TTITLE16=Der Sommerwind will keine Tränen sehen
TTITLE17=Sag mir noch einmal du Liebst nur mich
EXTD=
EXTT0=
EXTT1=
EXTT2=
EXTT3=
EXTT4=
EXTT5=
EXTT6=
EXTT7=
EXTT8=
EXTT9=
EXTT10=
EXTT11=
EXTT12=
EXTT13=
EXTT14=
EXTT15=
EXTT16=
EXTT17=
PLAYORDER=
